# Blender 4.0.2
# www.blender.org
mtllib apple.mtl
o 10162_Apple_v01_l3
v -0.022860 0.016749 0.005647
v -0.006158 0.020483 0.008346
v 0.017528 0.024556 0.006087
v 0.028044 -0.001814 0.005515
v -0.037693 -0.043878 0.022705
v 0.008870 -0.058458 0.021505
v -0.053273 -0.018965 0.023089
v -0.057035 0.019919 0.025698
v -0.046016 0.035830 0.018864
v 0.013866 0.065770 0.028171
v -0.015671 0.051877 0.014330
v 0.060947 0.033451 0.040417
v 0.041192 0.023801 0.014266
v 0.045044 -0.042349 0.028915
v 0.041431 -0.014941 0.012565
v -0.009307 -0.073548 0.044832
v 0.021156 -0.076728 0.053530
v -0.038711 -0.070736 0.082460
v -0.074687 -0.010172 0.051467
v -0.041433 0.070603 0.056357
v -0.008576 0.075789 0.037298
v 0.050117 0.058852 0.050695
v 0.072188 0.001067 0.044703
v 0.070253 -0.029721 0.052703
v 0.011300 -0.079411 0.112888
v 0.033283 -0.070201 0.121210
v -0.064062 -0.042160 0.119817
v -0.064948 -0.045289 0.070474
v -0.082219 -0.006497 0.091972
v -0.074323 0.037008 0.074457
v -0.077090 -0.002534 0.121939
v -0.035045 0.070072 0.113695
v 0.007738 0.072442 0.123943
v -0.015759 0.082091 0.085788
v 0.047877 0.056014 0.122921
v 0.022684 0.081545 0.076852
v 0.077912 0.011242 0.114925
v 0.084429 0.003521 0.077042
v 0.050406 -0.063151 0.077972
v 0.071347 -0.028195 0.115100
v 0.039857 -0.038383 0.141315
v 0.002526 -0.053981 0.143953
v -0.003550 -0.027913 0.144088
v -0.034905 -0.015155 0.149649
v -0.052931 -0.018268 0.144522
v -0.037965 0.009396 0.150369
v -0.008689 0.029062 0.143862
v 0.031320 0.046208 0.141270
v 0.030879 0.025468 0.144682
v 0.043083 0.005431 0.145635
v 0.024590 0.007534 0.134568
v -0.002570 0.004176 0.131104
v 0.002527 0.003037 0.129599
v -0.001189 -0.001220 0.130913
v 0.003121 -0.000941 0.129367
v -0.000504 0.001827 0.139681
v -0.007193 0.000405 0.190044
v -0.012826 -0.001230 0.191188
v -0.014572 0.002138 0.190397
v -0.005941 0.002135 0.194720
v -0.010903 0.002047 0.194798
v 0.003472 0.001130 0.162176
v -0.001103 0.003351 0.165993
v -0.000729 -0.001523 0.165161
v -0.027537 -0.060684 0.133278
v -0.061054 0.047407 0.118608
v -0.058845 0.019390 0.138764
v 0.034395 -0.023797 0.144488
v 0.061323 0.006242 0.138002
v -0.025490 0.048701 0.143673
v 0.004771 -0.022205 0.006539
v 0.060180 0.053633 0.085618
v -0.010124 0.003031 0.187987
v -0.014922 -0.079555 0.095541
v -0.030245 -0.018677 0.008346
vn 0.0346 -0.2192 -0.9751
vn -0.2958 -0.1832 -0.9375
vn -0.0111 0.0813 -0.9966
vn -0.1315 0.0641 -0.9892
vn 0.1204 0.2342 -0.9647
vn 0.2301 -0.0447 -0.9721
vn -0.6993 -0.2388 -0.6738
vn -0.4828 -0.5781 -0.6578
vn -0.7611 0.1510 -0.6308
vn -0.5848 0.3791 -0.7172
vn -0.5578 0.7908 -0.2520
vn -0.1072 0.8838 -0.4555
vn 0.5231 -0.2048 -0.8273
vn 0.8481 -0.4132 -0.3316
vn 0.5813 -0.5284 -0.6188
vn 0.5383 0.2898 -0.7913
vn 0.8606 0.0240 -0.5088
vn -0.5187 -0.8531 -0.0559
vn -0.7860 -0.5873 -0.1928
vn -0.2356 -0.8861 -0.3992
vn -0.8978 0.4249 -0.1158
vn 0.7864 0.3926 -0.4770
vn 0.9953 0.0508 -0.0820
vn 0.6679 -0.7414 -0.0656
vn 0.0905 -0.9497 0.2998
vn 0.2911 -0.9110 -0.2920
vn 0.4502 -0.7794 0.4357
vn -0.7403 -0.5532 0.3820
vn -0.9951 -0.0978 0.0173
vn -0.9043 -0.0146 0.4267
vn -0.4165 0.8352 0.3591
vn -0.7277 0.5642 0.3902
vn 0.3136 0.9492 -0.0269
vn -0.1849 0.9803 0.0702
vn 0.0962 0.8432 0.5289
vn 0.5877 0.6621 0.4651
vn 0.7770 0.6289 0.0278
vn 0.9152 0.1754 0.3627
vn 0.8449 -0.3940 0.3618
vn 0.0225 -0.4549 0.8903
vn 0.0738 0.0234 0.9970
vn 0.1283 0.2127 0.9687
vn -0.5019 -0.2225 0.8358
vn -0.3385 -0.6963 0.6329
vn 0.0188 -0.0842 0.9963
vn -0.0561 0.0520 0.9971
vn -0.1848 0.4724 0.8618
vn -0.6214 0.2449 0.7442
vn 0.1242 -0.1143 0.9857
vn 0.4232 -0.3480 0.8365
vn 0.6338 0.0649 0.7707
vn 0.0355 0.0060 0.9994
vn 0.0598 -0.2140 0.9750
vn 0.1177 -0.0339 0.9925
vn -0.3257 -0.1534 0.9329
vn -0.0225 -0.0476 0.9986
vn 0.3846 -0.0279 0.9227
vn 0.2974 0.0104 0.9547
vn -0.3153 -0.9489 -0.0152
vn -0.2665 0.3203 0.9091
vn 0.7530 0.1699 0.6357
vn -0.9193 0.3341 -0.2080
vn -0.5498 -0.8269 0.1186
vn 0.9857 0.0530 0.1602
vn -0.8323 0.5542 0.0084
vn -0.3845 0.9223 -0.0394
vn 0.9216 -0.3788 0.0851
vn -0.2594 0.9360 -0.2379
vn 0.1055 -0.6417 -0.7596
vn -0.1684 0.5282 -0.8322
vn -0.9166 -0.1481 -0.3714
vn 0.6501 0.6698 -0.3587
vn 0.2839 0.7142 -0.6398
vn -0.2318 -0.9673 0.1032
vn 0.2665 0.4206 0.8672
vt 0.669450 0.129886
vt 0.533571 0.149767
vt 0.346150 0.109392
vt 0.386350 0.129546
vt 0.140251 0.137442
vt 0.131627 0.117175
vt 0.492234 0.207278
vt 0.571609 0.217966
vt 0.396804 0.217103
vt 0.344651 0.194396
vt 0.287422 0.328335
vt 0.223199 0.264397
vt 0.828974 0.184083
vt 0.836162 0.306166
vt 0.784397 0.233235
vt 0.860842 0.135770
vt 0.942696 0.170019
vt 0.903376 0.280486
vt 0.592952 0.401378
vt 0.533793 0.373667
vt 0.650419 0.287099
vt 0.375021 0.383914
vt 0.964926 0.264983
vt 0.905825 0.395935
vt 0.762960 0.399880
vt 0.684314 0.506225
vt 0.712959 0.323639
vt 0.730238 0.547704
vt 0.529483 0.543075
vt 0.451687 0.446374
vt 0.440826 0.550358
vt 0.271100 0.521286
vt 0.340087 0.538085
vt 0.167266 0.400030
vt 0.236280 0.427438
vt 0.189473 0.557457
vt 0.098212 0.548380
vt 0.081146 0.422266
vt 0.975258 0.423180
vt 0.970098 0.557264
vt 0.918011 0.517956
vt 0.839580 0.528828
vt 0.680652 0.642869
vt 0.797167 0.696695
vt 0.640634 0.707000
vt 0.496932 0.646325
vt 0.605917 0.586597
vt 0.521951 0.719990
vt 0.397010 0.710720
vt 0.283486 0.634291
vt 0.395522 0.623103
vt 0.249166 0.709352
vt 0.782832 0.631557
vt 0.913449 0.616259
vt 0.909577 0.680290
vt 0.542153 0.809574
vt 0.322086 0.798855
vt 0.050036 0.729939
vt 0.075111 0.695410
vt 0.121641 0.789984
vt 0.923503 0.735697
vt 0.875094 0.808956
vt 0.752628 0.794363
vt 0.982021 0.879467
vt 0.988296 0.908398
vt 0.545070 0.893565
vt 0.039522 0.967570
vt 0.044836 0.924921
vt 0.074818 0.987914
vt 0.028708 0.886684
vt 0.077535 0.882795
vt 0.986033 0.937212
vt 0.550680 0.921997
vt 0.891131 0.987548
vt 0.706979 0.996946
vt 0.491354 0.948375
vt 0.869902 0.864747
vt 0.112633 0.916255
vt 0.292125 0.997684
vt 0.142811 0.950564
vt 0.549927 0.862648
vt 0.692836 0.202717
vt 0.250151 0.177078
vt 0.070736 0.175381
vt 0.458488 0.315054
vt 0.097114 0.301197
vt 0.975752 0.343796
vt 0.173966 0.225979
vt 0.640502 0.449254
vt 0.110198 0.633822
vt 0.969533 0.634533
vt 0.964976 0.694948
vt 0.987259 0.977087
vt 0.988570 0.861093
vt 0.059974 0.864507
vt 0.064636 0.225131
s 1
usemtl apple.001
f 71/1/1 75/2/2 2/3/3
f 75/2/2 1/4/4 2/3/3
f 3/5/5 4/6/6 2/3/3
f 7/7/7 75/2/2 5/8/8
f 75/2/2 7/7/7 8/9/9
f 8/9/9 9/10/10 75/2/2
f 9/10/10 20/11/11 21/12/12
f 15/13/13 24/14/14 14/15/15
f 15/13/13 4/16/6 13/17/16
f 23/18/17 15/13/13 13/17/16
f 18/19/18 28/20/19 16/21/20
f 20/11/11 9/10/10 30/22/21
f 12/23/22 38/24/23 23/18/17
f 39/25/24 14/15/15 24/14/14
f 25/26/25 17/27/26 39/25/24
f 39/25/24 26/28/27 25/26/25
f 28/20/19 18/19/18 27/29/28
f 29/30/29 27/29/28 31/31/30
f 28/20/19 27/29/28 29/30/29
f 31/31/30 30/22/21 29/30/29
f 32/32/31 20/11/11 66/33/32
f 66/33/32 20/11/11 30/22/21
f 36/34/33 34/35/34 33/36/35
f 34/35/34 32/32/31 33/36/35
f 32/32/31 34/35/34 20/11/11
f 35/37/36 72/38/37 36/34/33
f 72/39/37 35/40/36 37/41/38
f 38/24/23 37/41/38 40/42/39
f 39/25/24 40/42/39 26/28/27
f 42/43/40 68/44/41 43/45/42
f 45/46/43 65/47/44 44/48/45
f 46/49/46 70/50/47 67/51/48
f 70/50/47 46/49/46 47/52/49
f 41/53/50 69/54/51 68/44/41
f 69/54/51 50/55/52 68/44/41
f 42/43/40 41/53/50 68/44/41
f 54/56/53 46/49/46 44/48/45
f 46/49/46 54/56/53 52/57/54
f 52/57/54 47/52/49 46/49/46
f 51/58/55 49/59/56 53/60/57
f 51/61/55 53/62/57 55/63/58
f 68/44/41 51/61/55 55/63/58
f 54/64/53 55/65/58 64/66/59
f 61/67/60 60/68/61 59/69/62
f 60/68/61 61/70/60 58/71/63
f 53/72/57 62/73/64 55/65/58
f 56/74/65 64/75/59 63/76/66
f 54/64/53 64/66/59 56/77/65
f 62/73/64 63/76/66 57/78/67
f 58/79/63 73/80/68 63/76/66
f 64/66/59 58/71/63 63/81/66
f 66/33/32 70/50/47 32/32/31
f 70/50/47 66/33/32 67/51/48
f 67/51/48 31/31/30 45/46/43
f 68/44/41 50/55/52 51/61/55
f 40/42/39 37/41/38 69/54/51
f 35/40/36 69/54/51 37/41/38
f 33/36/35 32/32/31 70/50/47
f 26/28/27 40/42/39 41/53/50
f 75/2/2 71/1/1 6/82/69
f 75/2/2 9/10/10 1/4/4
f 1/4/4 11/83/70 2/3/3
f 3/5/5 2/3/3 11/83/70
f 4/6/6 3/5/5 13/84/16
f 71/1/1 15/13/13 6/82/69
f 7/7/7 5/8/8 19/85/71
f 5/8/8 28/20/19 19/85/71
f 19/85/71 30/22/21 8/9/9
f 24/14/14 15/13/13 23/18/17
f 19/85/71 29/30/29 30/22/21
f 21/12/12 34/35/34 36/34/33
f 36/34/33 72/38/37 22/86/72
f 72/39/37 38/24/23 22/87/72
f 38/24/23 12/23/22 22/87/72
f 24/14/14 38/24/23 40/42/39
f 57/78/67 64/66/59 62/73/64
f 73/80/68 57/78/67 63/76/66
f 58/79/63 59/69/62 73/80/68
f 10/88/73 36/34/33 22/86/72
f 18/19/18 74/89/74 65/47/44
f 35/37/36 33/36/35 48/90/75
f 42/43/40 44/48/45 65/47/44
f 43/45/42 44/48/45 42/43/40
f 48/90/75 70/50/47 47/52/49
f 13/84/16 3/5/5 10/88/73
f 6/82/69 16/21/20 5/8/8
f 16/21/20 74/89/74 18/19/18
f 47/52/49 52/57/54 49/59/56
f 2/3/3 4/16/6 71/1/1
f 21/12/12 11/83/70 9/10/10
f 10/88/73 11/83/70 21/12/12
f 6/82/69 15/13/13 14/15/15
f 16/21/20 28/20/19 5/8/8
f 21/12/12 20/11/11 34/35/34
f 23/18/17 38/24/23 24/14/14
f 39/25/24 17/27/26 14/15/15
f 18/19/18 65/47/44 27/29/28
f 30/22/21 31/31/30 66/33/32
f 72/39/37 37/41/38 38/24/23
f 45/46/43 44/48/45 46/49/46
f 45/46/43 46/49/46 67/51/48
f 48/91/75 49/92/56 50/55/52
f 48/91/75 50/55/52 69/54/51
f 43/45/42 68/44/41 55/63/58
f 43/45/42 54/56/53 44/48/45
f 54/56/53 43/45/42 55/63/58
f 53/60/57 49/59/56 52/57/54
f 52/93/54 56/74/65 53/72/57
f 54/64/53 56/77/65 52/94/54
f 60/68/61 58/71/63 57/78/67
f 73/80/68 60/68/61 57/78/67
f 59/69/62 60/68/61 73/80/68
f 61/70/60 59/95/62 58/71/63
f 64/66/59 55/65/58 62/73/64
f 53/72/57 63/76/66 62/73/64
f 56/74/65 63/76/66 53/72/57
f 58/71/63 64/66/59 57/78/67
f 45/46/43 27/29/28 65/47/44
f 66/33/32 31/31/30 67/51/48
f 45/46/43 31/31/30 27/29/28
f 51/61/55 50/55/52 49/92/56
f 69/54/51 41/53/50 40/42/39
f 69/54/51 35/40/36 48/91/75
f 70/50/47 48/90/75 33/36/35
f 42/43/40 25/26/25 26/28/27
f 26/28/27 41/53/50 42/43/40
f 75/2/2 6/82/69 5/8/8
f 1/4/4 9/10/10 11/83/70
f 4/16/6 15/13/13 71/1/1
f 6/82/69 17/27/26 16/21/20
f 19/85/71 8/9/9 7/7/7
f 8/9/9 30/22/21 9/10/10
f 22/86/72 13/84/16 10/88/73
f 12/96/22 13/84/16 22/86/72
f 13/17/16 12/23/22 23/18/17
f 6/82/69 14/15/15 17/27/26
f 17/27/26 25/26/25 74/89/74
f 74/89/74 16/21/20 17/27/26
f 28/20/19 29/30/29 19/85/71
f 39/25/24 24/14/14 40/42/39
f 10/88/73 21/12/12 36/34/33
f 65/47/44 74/89/74 25/26/25
f 33/36/35 35/37/36 36/34/33
f 25/26/25 42/43/40 65/47/44
f 47/52/49 49/59/56 48/90/75
f 10/88/73 3/5/5 11/83/70
